<svg width="540" height="376" viewBox="0 0 540 376" fill="none" xmlns="http://www.w3.org/2000/svg">
<g clip-path="url(#clip0_25_88)">
<path d="M107.591 376C167.013 376 215.183 372.339 215.183 367.822C215.183 363.306 167.013 359.644 107.591 359.644C48.1703 359.644 0 363.306 0 367.822C0 372.339 48.1703 376 107.591 376Z" fill="#E6E6E6"/>
<path d="M82.2408 83.4278C100.965 75.4576 124.286 80.5074 147.062 84.0122C147.274 79.7679 149.843 74.6023 147.152 71.6412C143.882 68.0438 144.183 64.2639 146.151 60.4622C151.182 50.7407 143.974 40.3966 136.696 31.7955C135.056 29.8612 132.983 28.3415 130.645 27.3596C128.308 26.3778 125.772 25.9615 123.244 26.1447L109.762 27.1084C106.482 27.3429 103.351 28.5745 100.789 30.6384C98.227 32.7022 96.3559 35.4999 95.4261 38.6571C92.207 43.0385 90.4841 47.4078 91.5688 51.7543C86.7472 55.0519 85.9371 59.0325 88.1038 63.5199C89.941 66.3453 89.9215 69.0956 88.0202 71.7697C85.5233 75.1791 83.6109 78.9806 82.3614 83.0185L82.2408 83.4278Z" fill="#2F2E41"/>
<path d="M527.204 325.046H145.583C142.189 325.046 138.934 323.697 136.535 321.295C134.135 318.894 132.787 315.636 132.787 312.24C271.124 296.15 406.862 296.15 540 312.24C540 315.636 538.652 318.894 536.252 321.295C533.852 323.697 530.598 325.046 527.204 325.046Z" fill="#2F2E41"/>
<path d="M540 312.993L132.787 312.24L179.981 232.768L180.207 232.391V57.2427C180.207 55.1168 180.625 53.0117 181.438 51.0475C182.251 49.0834 183.443 47.2988 184.945 45.7955C186.447 44.2923 188.23 43.0998 190.193 42.2864C192.155 41.4729 194.259 41.0543 196.383 41.0545H474.146C476.27 41.0543 478.374 41.4729 480.336 42.2864C482.299 43.0998 484.082 44.2923 485.584 45.7955C487.086 47.2988 488.278 49.0834 489.091 51.0475C489.903 53.0117 490.322 55.1168 490.321 57.2427V233.596L540 312.993Z" fill="#3F3D56"/>
<path d="M196.014 52.3539C194.617 52.3554 193.278 52.9115 192.29 53.9C191.302 54.8886 190.747 56.2289 190.745 57.6269V217.325C190.747 218.723 191.302 220.063 192.29 221.052C193.278 222.04 194.617 222.596 196.014 222.598H476.773C478.17 222.596 479.509 222.04 480.497 221.052C481.484 220.063 482.04 218.723 482.042 217.325V57.6269C482.04 56.2289 481.484 54.8887 480.497 53.9001C479.509 52.9116 478.17 52.3555 476.773 52.3539H196.014Z" fill="white"/>
<path d="M197.191 243.69C196.759 243.691 196.336 243.815 195.973 244.048C195.609 244.281 195.32 244.614 195.139 245.006L180.597 276.644C180.439 276.988 180.369 277.367 180.396 277.745C180.422 278.123 180.543 278.488 180.747 278.808C180.951 279.127 181.232 279.389 181.565 279.571C181.897 279.753 182.269 279.848 182.648 279.848H488.461C488.846 279.848 489.225 279.75 489.561 279.562C489.897 279.375 490.18 279.104 490.382 278.776C490.584 278.449 490.699 278.075 490.717 277.69C490.734 277.305 490.652 276.922 490.48 276.578L474.673 244.939C474.487 244.563 474.199 244.247 473.842 244.026C473.485 243.805 473.074 243.689 472.654 243.69H197.191Z" fill="#2F2E41"/>
<path d="M335.264 49.7173C337.135 49.7173 338.652 48.1997 338.652 46.3275C338.652 44.4554 337.135 42.9377 335.264 42.9377C333.394 42.9377 331.877 44.4554 331.877 46.3275C331.877 48.1997 333.394 49.7173 335.264 49.7173Z" fill="white"/>
<path d="M305.206 285.875C304.709 285.875 304.227 286.039 303.833 286.342C303.439 286.644 303.155 287.067 303.025 287.547L299.378 301.106C299.287 301.441 299.275 301.792 299.343 302.133C299.41 302.473 299.555 302.793 299.765 303.068C299.976 303.344 300.248 303.567 300.558 303.72C300.869 303.874 301.211 303.954 301.558 303.954H370.93C371.29 303.954 371.645 303.868 371.964 303.703C372.284 303.537 372.56 303.298 372.769 303.005C372.978 302.711 373.113 302.372 373.164 302.015C373.216 301.659 373.181 301.295 373.063 300.955L368.373 287.395C368.219 286.951 367.931 286.566 367.549 286.294C367.166 286.021 366.709 285.875 366.239 285.875H305.206Z" fill="#2F2E41"/>
<path d="M490.321 229.754V232.767H179.981L180.215 232.391V229.754H490.321Z" fill="#2F2E41"/>
<path d="M481.665 105.461C510.765 105.461 534.355 81.8528 534.355 52.7305C534.355 23.6083 510.765 0 481.665 0C452.566 0 428.976 23.6083 428.976 52.7305C428.976 81.8528 452.566 105.461 481.665 105.461Z" fill="#FF7700"/>
<path d="M503.494 75.706H459.837C459.039 75.7052 458.273 75.3875 457.709 74.8226C457.144 74.2577 456.827 73.4917 456.826 72.6928V46.3275C456.827 45.5286 457.145 44.7627 457.709 44.1978C458.273 43.6329 459.039 43.3152 459.837 43.3144H503.494C504.292 43.3152 505.057 43.6329 505.622 44.1978C506.186 44.7627 506.504 45.5286 506.505 46.3275V72.6928C506.504 73.4917 506.186 74.2577 505.622 74.8226C505.057 75.3875 504.292 75.7052 503.494 75.706ZM459.837 46.3275V72.6928H503.496L503.494 46.3275L459.837 46.3275Z" fill="white"/>
<path d="M495.214 46.3275H468.117V34.2748C468.117 25.545 473.815 19.209 481.665 19.209C489.516 19.209 495.214 25.545 495.214 34.2748L495.214 46.3275ZM471.128 43.3144H492.203V34.2748C492.203 27.1785 487.87 22.2222 481.665 22.2222C475.461 22.2222 471.128 27.1785 471.128 34.2748L471.128 43.3144Z" fill="white"/>
<path d="M481.665 61.77C483.328 61.77 484.676 60.421 484.676 58.7569C484.676 57.0927 483.328 55.7437 481.665 55.7437C480.003 55.7437 478.655 57.0927 478.655 58.7569C478.655 60.421 480.003 61.77 481.665 61.77Z" fill="white"/>
<path d="M444.884 168.43H227.903C226.838 168.429 225.817 168.005 225.063 167.251C224.31 166.497 223.886 165.475 223.885 164.409V110.543C223.886 109.477 224.31 108.455 225.063 107.701C225.817 106.947 226.838 106.523 227.903 106.522H444.884C445.949 106.523 446.97 106.947 447.724 107.701C448.477 108.455 448.901 109.477 448.902 110.543V164.409C448.901 165.475 448.477 166.497 447.724 167.251C446.97 168.005 445.949 168.429 444.884 168.43ZM227.903 108.13C227.264 108.131 226.651 108.385 226.199 108.838C225.747 109.29 225.493 109.903 225.492 110.543V164.409C225.493 165.049 225.747 165.662 226.199 166.114C226.651 166.566 227.264 166.821 227.903 166.822H444.884C445.523 166.821 446.136 166.566 446.588 166.114C447.04 165.662 447.294 165.049 447.295 164.409V110.543C447.294 109.903 447.04 109.29 446.588 108.838C446.136 108.385 445.523 108.131 444.884 108.13L227.903 108.13Z" fill="#E6E6E6"/>
<path d="M261.618 151.79C270.657 151.79 277.985 144.456 277.985 135.409C277.985 126.362 270.657 119.029 261.618 119.029C252.578 119.029 245.25 126.362 245.25 135.409C245.25 144.456 252.578 151.79 261.618 151.79Z" fill="#E6E6E6"/>
<path d="M299.419 124.489C299.061 124.488 298.706 124.558 298.374 124.695C298.043 124.832 297.741 125.033 297.488 125.287C297.234 125.54 297.033 125.842 296.895 126.173C296.758 126.505 296.687 126.86 296.687 127.219C296.687 127.578 296.758 127.933 296.895 128.265C297.033 128.596 297.234 128.897 297.488 129.151C297.741 129.404 298.043 129.605 298.374 129.742C298.706 129.879 299.061 129.95 299.419 129.949H428.024C428.747 129.949 429.441 129.661 429.953 129.149C430.464 128.637 430.752 127.943 430.752 127.219C430.752 126.495 430.464 125.8 429.953 125.288C429.441 124.776 428.747 124.489 428.024 124.489H299.419Z" fill="#E6E6E6"/>
<path d="M299.419 140.869C298.696 140.869 298.002 141.157 297.491 141.669C296.979 142.181 296.692 142.875 296.692 143.599C296.692 144.324 296.979 145.018 297.491 145.53C298.002 146.042 298.696 146.33 299.419 146.33H354.758C355.482 146.33 356.176 146.042 356.687 145.53C357.199 145.018 357.486 144.324 357.486 143.599C357.486 142.875 357.199 142.181 356.687 141.669C356.176 141.157 355.482 140.869 354.758 140.869H299.419Z" fill="#E6E6E6"/>
<path d="M179.448 141.974L139.337 163.315L138.829 145.531C151.921 143.343 164.377 139.535 175.893 133.336L180.088 122.963C180.546 121.833 181.288 120.841 182.244 120.085C183.2 119.329 184.336 118.835 185.54 118.651C186.745 118.467 187.976 118.599 189.114 119.035C190.252 119.471 191.257 120.196 192.03 121.138C193.161 122.517 193.727 124.274 193.612 126.054C193.497 127.835 192.711 129.505 191.411 130.726L179.448 141.974Z" fill="#FFB8B8"/>
<path d="M81.4414 265.191C81.1488 264.116 81.0867 262.993 81.2591 261.893C81.4315 260.793 81.8347 259.742 82.4419 258.81L91.2531 245.277C93.3371 242.076 96.5349 239.764 100.226 238.789C103.917 237.815 107.838 238.247 111.229 240.003C107.526 246.311 108.042 251.845 112.508 256.654C105.575 260.041 99.1681 264.412 93.4846 269.633C92.447 270.341 91.2554 270.79 90.0091 270.944C88.7628 271.098 87.4978 270.951 86.3195 270.516C85.1413 270.082 84.0838 269.372 83.2353 268.445C82.3868 267.519 81.7717 266.403 81.4414 265.191Z" fill="#2F2E41"/>
<path d="M181.274 247.496C179.941 249.72 178.059 251.564 175.809 252.85C173.558 254.136 171.015 254.822 168.424 254.842L109.889 255.286L107.35 240.55L133.244 232.928L111.412 216.16L135.275 188.213L178.618 228.642C181.151 231.005 182.797 234.167 183.281 237.599C183.764 241.03 183.056 244.524 181.274 247.496Z" fill="#2F2E41"/>
<path d="M100.75 348.273H87.0409C74.7325 263.837 62.2037 179.166 99.2264 147.563L142.891 154.677L137.306 191.77L112.935 219.717L100.75 348.273Z" fill="#2F2E41"/>
<path d="M112.8 367.4C111.727 367.693 110.604 367.755 109.505 367.582C108.406 367.41 107.356 367.006 106.424 366.399L91.5395 364.396C88.3411 362.311 86.0307 359.111 85.0567 355.417C84.0827 351.723 84.5144 347.799 86.2682 344.405C92.5717 348.111 98.1013 347.594 102.906 343.124C106.302 349.985 111.896 349.567 117.238 355.347C117.946 356.385 118.395 357.578 118.549 358.825C118.702 360.072 118.556 361.338 118.122 362.517C117.687 363.697 116.978 364.755 116.052 365.604C115.127 366.453 114.012 367.069 112.8 367.4Z" fill="#2F2E41"/>
<path d="M133.244 91.1612L107.858 85.0637C112.074 76.4266 112.421 66.816 110.396 56.6087L127.659 56.1006C128.2 68.7936 129.837 80.6521 133.244 91.1612Z" fill="#FFB8B8"/>
<path d="M140.221 169.976C121.741 182.579 108.683 170.407 98.7187 151.628C100.103 140.137 97.8614 126.385 93.7091 111.443C91.8625 104.853 92.5519 97.8086 95.6413 91.7019C98.7307 85.5952 103.996 80.8696 110.396 78.4581L132.229 87.6044C150.767 102.727 154.416 119.108 147.461 136.384L140.221 169.976Z" fill="#FF7700"/>
<path d="M87.041 103.864L66.7319 114.535L102.781 135.876L107.797 148.259C108.131 149.085 108.294 149.971 108.276 150.863C108.257 151.754 108.057 152.633 107.689 153.445C107.32 154.256 106.79 154.984 106.13 155.584C105.471 156.185 104.697 156.644 103.854 156.935C102.897 157.265 101.876 157.369 100.871 157.239C99.8666 157.108 98.9058 156.747 98.0641 156.183C97.2225 155.619 96.5226 154.868 96.0195 153.988C95.5164 153.108 95.2237 152.124 95.1642 151.112L94.6569 142.482L48.8394 127.35C47.2957 126.84 45.8882 125.986 44.7234 124.851C43.5587 123.716 42.6672 122.331 42.1166 120.8C41.314 118.569 41.2731 116.134 42.0004 113.877C42.7277 111.621 44.1821 109.669 46.136 108.327L82.9792 83.0312L87.041 103.864Z" fill="#FFB8B8"/>
<path d="M107.35 105.897C98.8799 102.182 91.1777 106.217 81.4559 109.454L79.9327 82.5231C89.5861 77.374 98.7899 75.9857 107.35 79.9825L107.35 105.897Z" fill="#FF7700"/>
<path d="M117.482 69.4403C126.434 69.4403 133.691 62.1779 133.691 53.2193C133.691 44.2608 126.434 36.9984 117.482 36.9984C108.531 36.9984 101.274 44.2608 101.274 53.2193C101.274 62.1779 108.531 69.4403 117.482 69.4403Z" fill="#FFB8B8"/>
<path d="M136.873 51.1727C120.825 52.7456 108.597 50.119 100.782 42.6404V36.6175H135.511L136.873 51.1727Z" fill="#2F2E41"/>
</g>
<defs>
<clipPath id="clip0_25_88">
<rect width="540" height="376" fill="white"/>
</clipPath>
</defs>
</svg>
