<?xml version="1.0" standalone="no"?>
<!DOCTYPE svg PUBLIC "-//W3C//DTD SVG 20010904//EN"
 "http://www.w3.org/TR/2001/REC-SVG-20010904/DTD/svg10.dtd">
<svg version="1.0" xmlns="http://www.w3.org/2000/svg"
 width="819.000000pt" height="819.000000pt" viewBox="0 0 819.000000 819.000000"
 preserveAspectRatio="xMidYMid meet">

<g transform="translate(0.000000,819.000000) scale(0.100000,-0.100000)"
fill="#000000" stroke="none">
<path d="M3850 8184 c-303 -26 -506 -57 -735 -114 -1634 -402 -2855 -1766
-3079 -3440 -123 -917 78 -1870 562 -2663 l67 -111 3 642 2 642 400 0 400 0 0
-130 0 -130 -260 0 -260 0 0 -135 0 -135 235 0 235 0 0 -125 0 -125 -235 0
-235 0 0 -145 0 -145 264 0 265 0 3 -125 3 -125 -398 0 -398 0 53 -76 c213
-305 511 -620 811 -858 866 -687 1986 -996 3077 -850 1650 221 3003 1412 3424
3017 463 1760 -290 3611 -1849 4550 -501 302 -1049 488 -1660 562 -123 15
-591 28 -695 19z m541 -448 c558 -206 1199 -512 1634 -781 l103 -63 11 25 c21
46 117 168 168 213 28 25 78 62 111 82 l61 37 5 -42 c3 -23 8 -82 11 -132 9
-157 36 -389 47 -413 l11 -22 23 21 c47 44 127 41 252 -7 40 -16 88 -41 107
-57 81 -67 166 -244 226 -474 36 -139 39 -198 21 -558 -6 -132 -16 -337 -22
-455 -6 -118 -13 -245 -16 -282 l-7 -68 -53 0 c-52 0 -165 -32 -281 -78 l-53
-22 0 56 c0 52 -1 55 -17 43 -51 -42 -90 -132 -177 -402 -50 -152 -92 -277
-95 -277 -3 0 -13 12 -22 28 -81 139 -561 924 -671 1096 -76 120 -137 220
-135 222 2 3 101 -1 221 -8 119 -7 216 -12 216 -10 0 7 -223 357 -355 559
-448 678 -872 1210 -1313 1646 -105 103 -189 187 -188 187 2 0 81 -29 177 -64z
m-451 -119 c433 -401 906 -977 1373 -1676 l129 -194 -203 7 c-112 3 -242 9
-289 13 l-84 6 70 -79 c244 -273 955 -1228 1332 -1789 63 -93 116 -171 116
-172 1 -2 72 -14 157 -28 175 -28 405 -74 530 -105 110 -27 301 -90 314 -102
7 -7 3 -8 -10 -5 -79 23 -1049 76 -1820 99 -551 16 -2511 17 -2960 0 -672 -24
-1336 -60 -1535 -82 -47 -6 -89 -10 -95 -10 -16 0 131 68 175 81 22 7 56 26
76 43 34 30 36 36 84 251 27 121 85 399 129 617 44 219 85 406 90 416 5 10 39
27 78 39 37 12 99 31 138 43 85 27 122 45 133 68 12 22 26 122 57 397 32 276
50 375 82 448 30 66 28 76 -32 145 -46 53 -81 72 -170 89 -182 34 -296 155
-330 349 -15 85 -19 184 -8 184 4 0 21 -13 38 -28 18 -18 55 -35 94 -46 81
-21 192 -87 251 -147 25 -25 66 -84 92 -130 48 -87 126 -172 186 -203 17 -9
55 -16 86 -16 55 0 55 0 271 155 119 85 229 165 244 176 l28 20 290 -120 c160
-67 296 -121 302 -121 28 0 -1 -25 -179 -156 -104 -76 -189 -141 -190 -144 0
-3 15 -13 33 -24 200 -116 348 -198 597 -331 630 -337 1326 -757 1460 -882
l55 -52 -76 -78 c-208 -213 -498 -606 -487 -660 4 -21 -9 -20 363 -27 343 -7
560 -17 855 -41 231 -19 277 -28 312 -62 16 -15 28 -23 28 -17 0 32 -126 181
-357 422 -545 569 -1216 1090 -2200 1708 -78 49 -143 92 -143 95 0 3 65 52
145 110 80 57 145 106 144 109 0 3 -141 74 -312 157 -678 331 -687 336 -687
354 0 52 271 389 485 605 83 83 193 185 245 226 91 73 327 238 339 238 3 0 76
-64 161 -143z m3235 -4472 c227 -57 392 -226 451 -460 25 -101 23 -313 -4
-417 -76 -286 -285 -459 -572 -475 -258 -14 -467 106 -573 328 -58 121 -77
208 -77 354 0 144 20 245 69 350 78 165 203 270 374 315 90 24 249 26 332 5z
m-5072 -262 c85 -142 189 -321 231 -398 41 -77 80 -147 85 -155 7 -10 10 125
10 398 l1 412 140 0 140 0 0 -660 0 -660 -158 0 -158 0 -16 33 c-8 18 -71 127
-139 242 -68 116 -165 284 -216 375 l-93 164 0 -407 0 -407 -140 0 -140 0 0
660 0 660 149 0 149 0 155 -257z m1412 232 c110 -23 189 -68 276 -155 136
-136 197 -307 186 -520 -3 -58 -13 -132 -22 -165 -59 -218 -229 -394 -420
-433 -27 -6 -177 -14 -332 -18 l-283 -7 0 663 0 663 263 -6 c173 -5 286 -12
332 -22z m887 -432 c3 -503 3 -500 66 -566 41 -44 78 -58 146 -59 124 -1 194
56 215 176 7 36 11 226 11 483 l0 423 141 0 141 0 -4 -467 c-4 -441 -6 -473
-26 -546 -12 -43 -34 -101 -49 -128 -70 -129 -227 -208 -413 -209 -212 0 -370
81 -440 226 -53 108 -53 116 -57 637 l-4 487 135 0 135 0 3 -457z m1553 433
c92 -25 160 -64 215 -122 81 -86 118 -201 107 -337 -10 -138 -67 -236 -173
-299 -44 -27 -53 -36 -48 -53 10 -32 169 -324 246 -452 l20 -33 -164 0 -164 0
-123 230 -124 230 -78 0 -79 0 0 -230 0 -230 -140 0 -140 0 0 661 0 662 293
-6 c225 -4 306 -9 352 -21z"/>
<path d="M6730 5892 c0 -17 81 -246 90 -256 6 -6 50 -2 112 9 157 28 153 24
73 83 -38 28 -106 72 -150 98 -44 26 -90 54 -102 62 -13 8 -23 10 -23 4z"/>
<path d="M3046 5272 c-2 -4 -7 -24 -11 -45 -21 -109 -304 -392 -447 -445 -29
-11 -202 -52 -383 -92 -182 -39 -337 -73 -347 -76 -10 -3 -39 -62 -79 -162
-34 -86 -100 -248 -146 -360 -46 -112 -83 -204 -83 -205 0 -1 21 -3 47 -5 84
-5 177 -70 190 -134 3 -16 9 -28 14 -28 5 0 134 15 287 34 490 61 825 91 1137
101 94 3 194 8 222 11 l53 5 -14 27 c-14 27 -98 127 -352 418 -181 208 -172
191 -140 260 25 55 150 238 177 261 11 9 63 -10 227 -79 116 -50 212 -95 212
-100 0 -5 -24 -35 -54 -66 -30 -31 -68 -80 -84 -109 l-31 -52 132 -164 c73
-90 177 -216 232 -280 l100 -117 150 0 151 0 98 348 c54 191 97 357 95 367 -3
16 -33 30 -134 66 -72 25 -236 83 -365 129 -365 128 -840 313 -840 327 0 2 11
21 25 43 30 48 31 69 4 104 -21 26 -34 32 -43 18z"/>
<path d="M6937 2889 c-190 -45 -296 -272 -247 -529 22 -117 96 -226 185 -273
56 -29 185 -35 254 -12 105 35 195 150 222 284 17 86 7 240 -20 311 -64 170
-224 259 -394 219z"/>
<path d="M3198 2474 l2 -407 128 7 c88 5 140 13 168 26 134 58 213 219 201
410 -8 146 -72 265 -175 326 -62 37 -95 44 -227 44 l-100 0 3 -406z"/>
<path d="M5588 2706 l3 -176 118 0 c140 0 208 17 244 60 71 84 53 212 -38 267
-25 15 -56 19 -180 21 l-150 4 3 -176z"/>
</g>
</svg>
